<svg xmlns="http://www.w3.org/2000/svg" width="19.269" height="17.342" viewBox="0 0 19.269 17.342">
  <g id="Add_to_Favorite_Songs" data-name="Add to Favorite Songs" transform="translate(-0.55 -0.5)" fill="none">
    <path d="M2.2,2.127a5.5,5.5,0,0,0,0,7.857l7.982,7.858,7.982-7.858a5.5,5.5,0,0,0,0-7.857,5.707,5.707,0,0,0-7.982,0A5.707,5.707,0,0,0,2.2,2.127Z" stroke="none"/>
    <path d="M 6.194120407104492 1.999998092651367 C 5.082830429077148 1.999998092651367 4.039270401000977 2.424858093261719 3.255640029907227 3.196328163146973 C 2.478349685668945 3.96153736114502 2.050291061401367 4.977177619934082 2.050291061401367 6.056158065795898 C 2.050291061401367 7.135117530822754 2.478361129760742 8.150727272033691 3.255649566650391 8.91591739654541 L 10.18491077423096 15.73756980895996 L 17.1143798828125 8.915907859802246 C 17.89165115356445 8.150727272033691 18.31970977783203 7.13510799407959 18.31970024108887 6.056158065795898 C 18.31968116760254 4.977188110351562 17.89158058166504 3.961567878723145 17.11421012878418 3.196328163146973 C 16.33057975769043 2.424858093261719 15.28700065612793 1.999998092651367 14.17571067810059 1.999998092651367 C 13.06442070007324 1.999998092651367 12.02084064483643 2.424858093261719 11.23722076416016 3.196317672729492 L 10.18488025665283 4.232337951660156 L 9.132540702819824 3.196308135986328 C 8.348950386047363 2.424858093261719 7.305400848388672 1.999998092651367 6.194120407104492 1.999998092651367 M 6.194120407104492 0.4999942779541016 C 7.638503074645996 0.4999942779541016 9.082880020141602 1.042463302612305 10.18489074707031 2.127397537231445 C 12.38898086547852 -0.04247093200683594 15.96245002746582 -0.04247093200683594 18.16654014587402 2.127397537231445 C 20.37071990966797 4.297187805175781 20.37071990966797 7.815097808837891 18.16670036315918 9.984848022460938 L 10.18489074707031 17.84246826171875 L 2.203319549560547 9.984848022460938 C -0.0007190704345703125 7.815097808837891 -0.0007190704345703125 4.297187805175781 2.203319549560547 2.127397537231445 C 3.305351257324219 1.042463302612305 4.749737739562988 0.4999942779541016 6.194120407104492 0.4999942779541016 Z" stroke="none" fill="#fff"/>
  </g>
</svg>
