<?xml version="1.0" standalone="no"?>
<!DOCTYPE svg PUBLIC "-//W3C//DTD SVG 20010904//EN"
 "http://www.w3.org/TR/2001/REC-SVG-20010904/DTD/svg10.dtd">
<svg version="1.0" xmlns="http://www.w3.org/2000/svg"
 width="512.000000pt" height="512.000000pt" viewBox="0 0 512.000000 512.000000"
 preserveAspectRatio="xMidYMid meet">

<g transform="translate(0.000000,512.000000) scale(0.100000,-0.100000)"
fill="#000000" stroke="none">
<path d="M2275 4673 c-137 -18 -339 -69 -470 -118 -289 -108 -520 -254 -743
-469 -361 -349 -569 -755 -649 -1266 -16 -103 -18 -191 -18 -850 0 -674 2
-742 18 -820 69 -319 304 -578 612 -673 82 -25 358 -70 431 -69 79 0 148 43
187 117 l22 40 0 830 0 830 -28 48 c-37 63 -112 107 -182 107 -27 0 -180 -11
-340 -25 -159 -14 -298 -25 -307 -25 -16 0 -18 12 -18 108 1 398 81 709 255
997 261 431 665 715 1175 827 93 20 132 22 340 22 206 0 248 -3 340 -22 554
-120 997 -461 1243 -957 62 -123 95 -215 131 -361 34 -135 44 -218 52 -431 7
-176 6 -183 -12 -183 -11 0 -154 12 -319 26 -165 14 -323 23 -351 21 -67 -7
-127 -46 -162 -106 l-27 -46 -3 -800 c-2 -551 0 -816 8 -851 20 -95 106 -164
206 -164 64 0 322 36 398 55 309 79 555 329 637 647 21 80 22 108 26 721 5
657 -2 878 -33 1057 -133 777 -682 1425 -1421 1680 -308 106 -684 145 -998
103z"/>
</g>
</svg>
