<svg xmlns="http://www.w3.org/2000/svg" width="20" height="20" viewBox="0 0 20 20">
  <g id="Home_Icon_selected_" data-name="Home Icon (selected)" fill="none">
    <path d="M11.667,20V13.647H8.333V20H2.25V11.853H0L10,0,20,11.853H17.75V20Z" stroke="none"/>
    <path d="M 16.25 18.5 L 16.25 10.35256004333496 L 16.77189445495605 10.35256004333496 L 10 2.326130390167236 L 3.228104591369629 10.35256004333496 L 3.75 10.35256004333496 L 3.75 18.5 L 6.833330154418945 18.5 L 6.833330154418945 12.14743995666504 L 13.16666984558105 12.14743995666504 L 13.16666984558105 18.5 L 16.25 18.5 M 17.75 20 L 11.66666984558105 20 L 11.66666984558105 13.64743995666504 L 8.333330154418945 13.64743995666504 L 8.333330154418945 20 L 2.25 20 L 2.25 11.85256004333496 L 0 11.85256004333496 L 10 0 L 20 11.85256004333496 L 17.75 11.85256004333496 L 17.75 20 Z" stroke="none" fill="#fff"/>
  </g>
</svg>
