<svg xmlns="http://www.w3.org/2000/svg" width="25.686" height="25.686" viewBox="0 0 25.686 25.686">
  <path id="FLOW_ICON" data-name="FLOW ICON" d="M7.939.963A13.072,13.072,0,0,1,12.875,0a11.865,11.865,0,0,1,7.081,2.247A12.75,12.75,0,0,1,24.676,7.92a12.137,12.137,0,0,1,.751,7.278,12.114,12.114,0,0,1-3.433,6.528l-1.18-1.07a11.682,11.682,0,0,0,3-5.672,10.99,10.99,0,0,0-.644-6.421A10.4,10.4,0,0,0,18.99,3.639a11.536,11.536,0,0,0-6.223-1.926h0a9.932,9.932,0,0,0-4.292.856A10.446,10.446,0,0,0,4.935,4.816h0A13.13,13.13,0,0,0,2.468,8.348a11.614,11.614,0,0,0-.858,4.174,11.373,11.373,0,0,0,3.219,7.813L3.648,21.4A12.108,12.108,0,0,1,0,12.629H0A12.07,12.07,0,0,1,.966,7.813,13.109,13.109,0,0,1,3.755,3.746,12.446,12.446,0,0,1,7.939.963ZM9.978,5.672a8.691,8.691,0,0,1,2.9-.535,8.1,8.1,0,0,1,5.472,2.247A7.185,7.185,0,0,1,20.6,12.736h0a7.554,7.554,0,0,1-2.253,5.244L17.166,16.8a5.841,5.841,0,0,0,1.717-4.067,5.992,5.992,0,0,0-1.824-4.281,6.022,6.022,0,0,0-4.292-1.819h0a6.129,6.129,0,0,0-2.36.428A20.621,20.621,0,0,0,8.583,8.455a6.237,6.237,0,0,0-1.824,4.388A5.841,5.841,0,0,0,8.476,16.91L7.3,18.087a7.829,7.829,0,0,1-2.253-5.244h0A8.243,8.243,0,0,1,7.4,7.385h0A8.326,8.326,0,0,1,9.978,5.672Zm3.755,20.013H12.124V15.2A2.538,2.538,0,0,1,10.3,12.736a2.575,2.575,0,0,1,5.15,0A2.538,2.538,0,0,1,13.626,15.2V25.686Z" fill="#f8f8f8" fill-rule="evenodd"/>
</svg>
