<svg xmlns="http://www.w3.org/2000/svg" width="18" height="18" viewBox="0 0 18 18">
  <path id="Search_Icon" data-name="Search Icon" d="M7.374,13.2a6.306,6.306,0,0,0,3.688-1.125l.527-.375.452-.45A5.872,5.872,0,0,0,11.815,3,6.542,6.542,0,0,0,7.374,1.2,6.212,6.212,0,0,0,2.933,3,5.666,5.666,0,0,0,1.126,7.2a5.962,5.962,0,0,0,1.807,4.2A6.542,6.542,0,0,0,7.374,13.2Zm9.71,4.8-5.269-5.1a7.515,7.515,0,0,1-4.366,1.35,7.3,7.3,0,0,1-5.194-2.1A6.777,6.777,0,0,1,2.18,2.1,7.3,7.3,0,0,1,7.374,0a7.3,7.3,0,0,1,5.194,2.1,6.956,6.956,0,0,1,.226,9.825l5.194,5.025Z" transform="translate(0.013)" fill="#fff"/>
</svg>
