<svg id="Shuffle18" xmlns="http://www.w3.org/2000/svg" width="17.342" height="17.342" viewBox="0 0 17.342 17.342">
  <path id="Path_871" data-name="Path 871" d="M13.017,13.283H12.15c-.578-.674-2.312-2.409-2.987-3.083L8.2,11.26a39.87,39.87,0,0,1,3.083,3.276l.193.193h1.445v2.987l.674-.578,3.95-2.89-4.625-3.565v2.6Z" transform="translate(-0.3 -0.373)" fill="#fff"/>
  <path id="Path_872" data-name="Path 872" d="M4.528,7.332l.963-1.06C4.817,5.6,2.409,3.093,2.409,3.093L2.216,2.9H0V4.345H1.542C2.216,4.923,3.854,6.754,4.528,7.332Z" transform="translate(0 -0.106)" fill="#fff"/>
  <path id="Path_873" data-name="Path 873" d="M12.718,4.239v2.7l.674-.578,3.95-2.794L12.718,0V2.794H11.369L1.542,13.2H0v1.445H2.216L12.043,4.239Z" fill="#fff"/>
</svg>
